<mxfile host="app.diagrams.net" modified="2024-03-19T23:09:06.791Z" agent="Mozilla/5.0 (Windows NT 10.0; Win64; x64) AppleWebKit/537.36 (KHTML, like Gecko) Chrome/121.0.0.0 Safari/537.36 OPR/107.0.0.0 (Edition std-1)" version="24.0.7" etag="jBVoaTKvc3o4KN5C7hzJ" type="github">
  <diagram name="PÃ¡gina-1" id="-6nyCAEK4RELro-s22nh">
    <mxGraphModel>
      <root>
        <mxCell id="0" />
        <mxCell id="1" parent="0" />
      </root>
    </mxGraphModel>
  </diagram>
</mxfile>
